<mxfile host="app.diagrams.net" modified="2024-01-09T06:41:04.489Z" agent="Mozilla/5.0 (Macintosh; Intel Mac OS X 10_15_7) AppleWebKit/537.36 (KHTML, like Gecko) Chrome/120.0.0.0 Safari/537.36" etag="hod7r-2b1qk7SdQVdoIR" version="21.6.6" type="github">
  <diagram name="Page-1" id="t0wirQSe8Ndwz_d9o5BJ">
    <mxGraphModel dx="954" dy="606" grid="1" gridSize="10" guides="1" tooltips="1" connect="1" arrows="1" fold="1" page="1" pageScale="1" pageWidth="827" pageHeight="1169" math="0" shadow="0">
      <root>
        <mxCell id="0" />
        <mxCell id="1" parent="0" />
        <mxCell id="t5gcVrF-W7fBeW5LNrVJ-37" value="" style="rounded=0;whiteSpace=wrap;html=1;fillColor=#FAFAFA;" vertex="1" parent="1">
          <mxGeometry x="20" y="80" width="790" height="570" as="geometry" />
        </mxCell>
        <mxCell id="t5gcVrF-W7fBeW5LNrVJ-20" style="edgeStyle=orthogonalEdgeStyle;rounded=0;orthogonalLoop=1;jettySize=auto;html=1;" edge="1" parent="1" source="t5gcVrF-W7fBeW5LNrVJ-4" target="t5gcVrF-W7fBeW5LNrVJ-6">
          <mxGeometry relative="1" as="geometry" />
        </mxCell>
        <mxCell id="t5gcVrF-W7fBeW5LNrVJ-27" value="&lt;font color=&quot;#ff9933&quot; style=&quot;font-size: 15px;&quot;&gt;1&lt;/font&gt;" style="edgeLabel;html=1;align=center;verticalAlign=middle;resizable=0;points=[];" vertex="1" connectable="0" parent="t5gcVrF-W7fBeW5LNrVJ-20">
          <mxGeometry x="-0.203" y="3" relative="1" as="geometry">
            <mxPoint x="19" y="1" as="offset" />
          </mxGeometry>
        </mxCell>
        <mxCell id="t5gcVrF-W7fBeW5LNrVJ-4" value="Task Queue" style="sketch=0;points=[[0,0,0],[0.25,0,0],[0.5,0,0],[0.75,0,0],[1,0,0],[0,1,0],[0.25,1,0],[0.5,1,0],[0.75,1,0],[1,1,0],[0,0.25,0],[0,0.5,0],[0,0.75,0],[1,0.25,0],[1,0.5,0],[1,0.75,0]];outlineConnect=0;fontColor=#232F3E;gradientColor=#FF4F8B;gradientDirection=north;fillColor=#BC1356;strokeColor=#ffffff;dashed=0;verticalLabelPosition=bottom;verticalAlign=top;align=center;html=1;fontSize=12;fontStyle=0;aspect=fixed;shape=mxgraph.aws4.resourceIcon;resIcon=mxgraph.aws4.sqs;" vertex="1" parent="1">
          <mxGeometry x="390" y="130" width="78" height="78" as="geometry" />
        </mxCell>
        <mxCell id="t5gcVrF-W7fBeW5LNrVJ-9" value="Task Table" style="sketch=0;points=[[0,0,0],[0.25,0,0],[0.5,0,0],[0.75,0,0],[1,0,0],[0,1,0],[0.25,1,0],[0.5,1,0],[0.75,1,0],[1,1,0],[0,0.25,0],[0,0.5,0],[0,0.75,0],[1,0.25,0],[1,0.5,0],[1,0.75,0]];outlineConnect=0;fontColor=#232F3E;gradientColor=#4D72F3;gradientDirection=north;fillColor=#3334B9;strokeColor=#ffffff;dashed=0;verticalLabelPosition=bottom;verticalAlign=top;align=center;html=1;fontSize=12;fontStyle=0;aspect=fixed;shape=mxgraph.aws4.resourceIcon;resIcon=mxgraph.aws4.dynamodb;" vertex="1" parent="1">
          <mxGeometry x="390" y="330" width="78" height="78" as="geometry" />
        </mxCell>
        <mxCell id="t5gcVrF-W7fBeW5LNrVJ-11" value="Exported File(JSON/ISHNE)" style="sketch=0;points=[[0,0,0],[0.25,0,0],[0.5,0,0],[0.75,0,0],[1,0,0],[0,1,0],[0.25,1,0],[0.5,1,0],[0.75,1,0],[1,1,0],[0,0.25,0],[0,0.5,0],[0,0.75,0],[1,0.25,0],[1,0.5,0],[1,0.75,0]];outlineConnect=0;fontColor=#232F3E;gradientColor=#60A337;gradientDirection=north;fillColor=#277116;strokeColor=#ffffff;dashed=0;verticalLabelPosition=bottom;verticalAlign=top;align=center;html=1;fontSize=12;fontStyle=0;aspect=fixed;shape=mxgraph.aws4.resourceIcon;resIcon=mxgraph.aws4.s3;" vertex="1" parent="1">
          <mxGeometry x="490" y="478" width="78" height="78" as="geometry" />
        </mxCell>
        <mxCell id="t5gcVrF-W7fBeW5LNrVJ-12" value="" style="group" vertex="1" connectable="0" parent="1">
          <mxGeometry x="40" y="100" width="310" height="180" as="geometry" />
        </mxCell>
        <mxCell id="t5gcVrF-W7fBeW5LNrVJ-1" value="" style="sketch=0;points=[[0,0,0],[0.25,0,0],[0.5,0,0],[0.75,0,0],[1,0,0],[0,1,0],[0.25,1,0],[0.5,1,0],[0.75,1,0],[1,1,0],[0,0.25,0],[0,0.5,0],[0,0.75,0],[1,0.25,0],[1,0.5,0],[1,0.75,0]];outlineConnect=0;fontColor=#232F3E;gradientColor=#945DF2;gradientDirection=north;fillColor=#5A30B5;strokeColor=#ffffff;dashed=0;verticalLabelPosition=bottom;verticalAlign=top;align=center;html=1;fontSize=12;fontStyle=0;aspect=fixed;shape=mxgraph.aws4.resourceIcon;resIcon=mxgraph.aws4.api_gateway;" vertex="1" parent="t5gcVrF-W7fBeW5LNrVJ-12">
          <mxGeometry x="31" y="30" width="78" height="78" as="geometry" />
        </mxCell>
        <object placeholders="1" c4Name="API-Create Task" c4Type="ContainerScopeBoundary" c4Application="Container" label="&lt;font style=&quot;font-size: 16px&quot;&gt;&lt;b&gt;&lt;div style=&quot;text-align: left&quot;&gt;%c4Name%&lt;/div&gt;&lt;/b&gt;&lt;/font&gt;&lt;div style=&quot;text-align: left&quot;&gt;[%c4Application%]&lt;/div&gt;" id="t5gcVrF-W7fBeW5LNrVJ-2">
          <mxCell style="rounded=1;fontSize=11;whiteSpace=wrap;html=1;dashed=1;arcSize=20;fillColor=none;strokeColor=#666666;fontColor=#333333;labelBackgroundColor=none;align=left;verticalAlign=bottom;labelBorderColor=none;spacingTop=0;spacing=10;dashPattern=8 4;metaEdit=1;rotatable=0;perimeter=rectanglePerimeter;noLabel=0;labelPadding=0;allowArrows=0;connectable=0;expand=0;recursiveResize=0;editable=1;pointerEvents=0;absoluteArcSize=1;points=[[0.25,0,0],[0.5,0,0],[0.75,0,0],[1,0.25,0],[1,0.5,0],[1,0.75,0],[0.75,1,0],[0.5,1,0],[0.25,1,0],[0,0.75,0],[0,0.5,0],[0,0.25,0]];" vertex="1" parent="t5gcVrF-W7fBeW5LNrVJ-12">
            <mxGeometry width="310" height="180" as="geometry" />
          </mxCell>
        </object>
        <mxCell id="t5gcVrF-W7fBeW5LNrVJ-3" value="" style="sketch=0;points=[[0,0,0],[0.25,0,0],[0.5,0,0],[0.75,0,0],[1,0,0],[0,1,0],[0.25,1,0],[0.5,1,0],[0.75,1,0],[1,1,0],[0,0.25,0],[0,0.5,0],[0,0.75,0],[1,0.25,0],[1,0.5,0],[1,0.75,0]];outlineConnect=0;fontColor=#232F3E;gradientColor=#F78E04;gradientDirection=north;fillColor=#D05C17;strokeColor=#ffffff;dashed=0;verticalLabelPosition=bottom;verticalAlign=top;align=center;html=1;fontSize=12;fontStyle=0;aspect=fixed;shape=mxgraph.aws4.resourceIcon;resIcon=mxgraph.aws4.lambda;" vertex="1" parent="t5gcVrF-W7fBeW5LNrVJ-12">
          <mxGeometry x="201" y="30" width="78" height="78" as="geometry" />
        </mxCell>
        <mxCell id="t5gcVrF-W7fBeW5LNrVJ-10" style="edgeStyle=orthogonalEdgeStyle;rounded=0;orthogonalLoop=1;jettySize=auto;html=1;entryX=0;entryY=0.5;entryDx=0;entryDy=0;entryPerimeter=0;" edge="1" parent="t5gcVrF-W7fBeW5LNrVJ-12" source="t5gcVrF-W7fBeW5LNrVJ-1" target="t5gcVrF-W7fBeW5LNrVJ-3">
          <mxGeometry relative="1" as="geometry" />
        </mxCell>
        <mxCell id="t5gcVrF-W7fBeW5LNrVJ-22" value="&lt;font color=&quot;#ff0000&quot; style=&quot;font-size: 15px;&quot;&gt;1&lt;/font&gt;" style="edgeLabel;html=1;align=center;verticalAlign=middle;resizable=0;points=[];" vertex="1" connectable="0" parent="t5gcVrF-W7fBeW5LNrVJ-10">
          <mxGeometry x="-0.0652" relative="1" as="geometry">
            <mxPoint y="-2" as="offset" />
          </mxGeometry>
        </mxCell>
        <object placeholders="1" c4Name="Task Listener(Worker)" c4Type="ContainerScopeBoundary" c4Application="Container" label="&lt;font style=&quot;font-size: 16px&quot;&gt;&lt;b&gt;&lt;div style=&quot;text-align: left&quot;&gt;%c4Name%&lt;/div&gt;&lt;/b&gt;&lt;/font&gt;&lt;div style=&quot;text-align: left&quot;&gt;[%c4Application%]&lt;/div&gt;" id="t5gcVrF-W7fBeW5LNrVJ-5">
          <mxCell style="rounded=1;fontSize=11;whiteSpace=wrap;html=1;dashed=1;arcSize=20;fillColor=none;strokeColor=#666666;fontColor=#333333;labelBackgroundColor=none;align=left;verticalAlign=bottom;labelBorderColor=none;spacingTop=0;spacing=10;dashPattern=8 4;metaEdit=1;rotatable=0;perimeter=rectanglePerimeter;noLabel=0;labelPadding=0;allowArrows=0;connectable=0;expand=0;recursiveResize=0;editable=1;pointerEvents=0;absoluteArcSize=1;points=[[0.25,0,0],[0.5,0,0],[0.75,0,0],[1,0.25,0],[1,0.5,0],[1,0.75,0],[0.75,1,0],[0.5,1,0],[0.25,1,0],[0,0.75,0],[0,0.5,0],[0,0.25,0]];" vertex="1" parent="1">
            <mxGeometry x="504" y="100" width="284" height="180.63" as="geometry" />
          </mxCell>
        </object>
        <mxCell id="t5gcVrF-W7fBeW5LNrVJ-25" style="edgeStyle=orthogonalEdgeStyle;rounded=0;orthogonalLoop=1;jettySize=auto;html=1;exitX=1;exitY=0.5;exitDx=0;exitDy=0;exitPerimeter=0;" edge="1" parent="1" source="t5gcVrF-W7fBeW5LNrVJ-6" target="t5gcVrF-W7fBeW5LNrVJ-11">
          <mxGeometry relative="1" as="geometry">
            <Array as="points">
              <mxPoint x="699" y="169" />
              <mxPoint x="699" y="517" />
            </Array>
          </mxGeometry>
        </mxCell>
        <mxCell id="t5gcVrF-W7fBeW5LNrVJ-28" value="&lt;font style=&quot;font-size: 15px;&quot; color=&quot;#ff9933&quot;&gt;2 Upload&lt;/font&gt;" style="edgeLabel;html=1;align=center;verticalAlign=middle;resizable=0;points=[];" vertex="1" connectable="0" parent="t5gcVrF-W7fBeW5LNrVJ-25">
          <mxGeometry x="-0.1363" y="1" relative="1" as="geometry">
            <mxPoint y="1" as="offset" />
          </mxGeometry>
        </mxCell>
        <mxCell id="t5gcVrF-W7fBeW5LNrVJ-29" style="edgeStyle=orthogonalEdgeStyle;rounded=0;orthogonalLoop=1;jettySize=auto;html=1;entryX=1;entryY=0.5;entryDx=0;entryDy=0;entryPerimeter=0;" edge="1" parent="1" source="t5gcVrF-W7fBeW5LNrVJ-6" target="t5gcVrF-W7fBeW5LNrVJ-9">
          <mxGeometry relative="1" as="geometry">
            <Array as="points">
              <mxPoint x="640" y="369" />
            </Array>
          </mxGeometry>
        </mxCell>
        <mxCell id="t5gcVrF-W7fBeW5LNrVJ-30" value="&lt;font color=&quot;#ff9933&quot; style=&quot;font-size: 15px;&quot;&gt;3 Update&lt;/font&gt;" style="edgeLabel;html=1;align=center;verticalAlign=middle;resizable=0;points=[];" vertex="1" connectable="0" parent="t5gcVrF-W7fBeW5LNrVJ-29">
          <mxGeometry x="0.3994" y="-1" relative="1" as="geometry">
            <mxPoint as="offset" />
          </mxGeometry>
        </mxCell>
        <mxCell id="t5gcVrF-W7fBeW5LNrVJ-6" value="" style="sketch=0;points=[[0,0,0],[0.25,0,0],[0.5,0,0],[0.75,0,0],[1,0,0],[0,1,0],[0.25,1,0],[0.5,1,0],[0.75,1,0],[1,1,0],[0,0.25,0],[0,0.5,0],[0,0.75,0],[1,0.25,0],[1,0.5,0],[1,0.75,0]];outlineConnect=0;fontColor=#232F3E;gradientColor=#F78E04;gradientDirection=north;fillColor=#D05C17;strokeColor=#ffffff;dashed=0;verticalLabelPosition=bottom;verticalAlign=top;align=center;html=1;fontSize=12;fontStyle=0;aspect=fixed;shape=mxgraph.aws4.resourceIcon;resIcon=mxgraph.aws4.lambda;container=0;" vertex="1" parent="1">
          <mxGeometry x="601" y="130" width="78" height="78" as="geometry" />
        </mxCell>
        <mxCell id="t5gcVrF-W7fBeW5LNrVJ-14" value="" style="group" vertex="1" connectable="0" parent="1">
          <mxGeometry x="40" y="448" width="310" height="180" as="geometry" />
        </mxCell>
        <mxCell id="t5gcVrF-W7fBeW5LNrVJ-15" value="" style="sketch=0;points=[[0,0,0],[0.25,0,0],[0.5,0,0],[0.75,0,0],[1,0,0],[0,1,0],[0.25,1,0],[0.5,1,0],[0.75,1,0],[1,1,0],[0,0.25,0],[0,0.5,0],[0,0.75,0],[1,0.25,0],[1,0.5,0],[1,0.75,0]];outlineConnect=0;fontColor=#232F3E;gradientColor=#945DF2;gradientDirection=north;fillColor=#5A30B5;strokeColor=#ffffff;dashed=0;verticalLabelPosition=bottom;verticalAlign=top;align=center;html=1;fontSize=12;fontStyle=0;aspect=fixed;shape=mxgraph.aws4.resourceIcon;resIcon=mxgraph.aws4.api_gateway;" vertex="1" parent="t5gcVrF-W7fBeW5LNrVJ-14">
          <mxGeometry x="31" y="30" width="78" height="78" as="geometry" />
        </mxCell>
        <object placeholders="1" c4Name="API-Query Task" c4Type="ContainerScopeBoundary" c4Application="Container" label="&lt;font style=&quot;font-size: 16px&quot;&gt;&lt;b&gt;&lt;div style=&quot;text-align: left&quot;&gt;%c4Name%&lt;/div&gt;&lt;/b&gt;&lt;/font&gt;&lt;div style=&quot;text-align: left&quot;&gt;[%c4Application%]&lt;/div&gt;" id="t5gcVrF-W7fBeW5LNrVJ-16">
          <mxCell style="rounded=1;fontSize=11;whiteSpace=wrap;html=1;dashed=1;arcSize=20;fillColor=none;strokeColor=#666666;fontColor=#333333;labelBackgroundColor=none;align=left;verticalAlign=bottom;labelBorderColor=none;spacingTop=0;spacing=10;dashPattern=8 4;metaEdit=1;rotatable=0;perimeter=rectanglePerimeter;noLabel=0;labelPadding=0;allowArrows=0;connectable=0;expand=0;recursiveResize=0;editable=1;pointerEvents=0;absoluteArcSize=1;points=[[0.25,0,0],[0.5,0,0],[0.75,0,0],[1,0.25,0],[1,0.5,0],[1,0.75,0],[0.75,1,0],[0.5,1,0],[0.25,1,0],[0,0.75,0],[0,0.5,0],[0,0.25,0]];" vertex="1" parent="t5gcVrF-W7fBeW5LNrVJ-14">
            <mxGeometry width="310" height="180" as="geometry" />
          </mxCell>
        </object>
        <mxCell id="t5gcVrF-W7fBeW5LNrVJ-17" value="" style="sketch=0;points=[[0,0,0],[0.25,0,0],[0.5,0,0],[0.75,0,0],[1,0,0],[0,1,0],[0.25,1,0],[0.5,1,0],[0.75,1,0],[1,1,0],[0,0.25,0],[0,0.5,0],[0,0.75,0],[1,0.25,0],[1,0.5,0],[1,0.75,0]];outlineConnect=0;fontColor=#232F3E;gradientColor=#F78E04;gradientDirection=north;fillColor=#D05C17;strokeColor=#ffffff;dashed=0;verticalLabelPosition=bottom;verticalAlign=top;align=center;html=1;fontSize=12;fontStyle=0;aspect=fixed;shape=mxgraph.aws4.resourceIcon;resIcon=mxgraph.aws4.lambda;" vertex="1" parent="t5gcVrF-W7fBeW5LNrVJ-14">
          <mxGeometry x="201" y="30" width="78" height="78" as="geometry" />
        </mxCell>
        <mxCell id="t5gcVrF-W7fBeW5LNrVJ-18" style="edgeStyle=orthogonalEdgeStyle;rounded=0;orthogonalLoop=1;jettySize=auto;html=1;entryX=0;entryY=0.5;entryDx=0;entryDy=0;entryPerimeter=0;" edge="1" parent="t5gcVrF-W7fBeW5LNrVJ-14" source="t5gcVrF-W7fBeW5LNrVJ-15" target="t5gcVrF-W7fBeW5LNrVJ-17">
          <mxGeometry relative="1" as="geometry" />
        </mxCell>
        <mxCell id="t5gcVrF-W7fBeW5LNrVJ-31" value="&lt;font color=&quot;#0000ff&quot; style=&quot;font-size: 15px;&quot;&gt;1&lt;/font&gt;" style="edgeLabel;html=1;align=center;verticalAlign=middle;resizable=0;points=[];" vertex="1" connectable="0" parent="t5gcVrF-W7fBeW5LNrVJ-18">
          <mxGeometry x="0.1304" y="-1" relative="1" as="geometry">
            <mxPoint y="-2" as="offset" />
          </mxGeometry>
        </mxCell>
        <mxCell id="t5gcVrF-W7fBeW5LNrVJ-19" style="edgeStyle=orthogonalEdgeStyle;rounded=0;orthogonalLoop=1;jettySize=auto;html=1;" edge="1" parent="1" source="t5gcVrF-W7fBeW5LNrVJ-3" target="t5gcVrF-W7fBeW5LNrVJ-4">
          <mxGeometry relative="1" as="geometry" />
        </mxCell>
        <mxCell id="t5gcVrF-W7fBeW5LNrVJ-24" value="&lt;font color=&quot;#ff0000&quot; style=&quot;font-size: 15px;&quot;&gt;3&lt;/font&gt;" style="edgeLabel;html=1;align=center;verticalAlign=middle;resizable=0;points=[];" vertex="1" connectable="0" parent="t5gcVrF-W7fBeW5LNrVJ-19">
          <mxGeometry x="-0.1831" y="-1" relative="1" as="geometry">
            <mxPoint y="-1" as="offset" />
          </mxGeometry>
        </mxCell>
        <mxCell id="t5gcVrF-W7fBeW5LNrVJ-21" style="edgeStyle=orthogonalEdgeStyle;rounded=0;orthogonalLoop=1;jettySize=auto;html=1;entryX=0;entryY=0.5;entryDx=0;entryDy=0;entryPerimeter=0;" edge="1" parent="1" source="t5gcVrF-W7fBeW5LNrVJ-3" target="t5gcVrF-W7fBeW5LNrVJ-9">
          <mxGeometry relative="1" as="geometry">
            <Array as="points">
              <mxPoint x="280" y="369" />
            </Array>
          </mxGeometry>
        </mxCell>
        <mxCell id="t5gcVrF-W7fBeW5LNrVJ-23" value="&lt;font color=&quot;#ff0000&quot; style=&quot;font-size: 15px;&quot;&gt;2 Insert&lt;/font&gt;" style="edgeLabel;html=1;align=center;verticalAlign=middle;resizable=0;points=[];" vertex="1" connectable="0" parent="t5gcVrF-W7fBeW5LNrVJ-21">
          <mxGeometry x="-0.2251" relative="1" as="geometry">
            <mxPoint x="-1" as="offset" />
          </mxGeometry>
        </mxCell>
        <mxCell id="t5gcVrF-W7fBeW5LNrVJ-26" style="edgeStyle=orthogonalEdgeStyle;rounded=0;orthogonalLoop=1;jettySize=auto;html=1;entryX=0;entryY=0.5;entryDx=0;entryDy=0;entryPerimeter=0;" edge="1" parent="1" source="t5gcVrF-W7fBeW5LNrVJ-17" target="t5gcVrF-W7fBeW5LNrVJ-11">
          <mxGeometry relative="1" as="geometry" />
        </mxCell>
        <mxCell id="t5gcVrF-W7fBeW5LNrVJ-34" value="&lt;font style=&quot;font-size: 15px;&quot; color=&quot;#0000ff&quot;&gt;3 Get File URL&lt;/font&gt;" style="edgeLabel;html=1;align=center;verticalAlign=middle;resizable=0;points=[];" vertex="1" connectable="0" parent="t5gcVrF-W7fBeW5LNrVJ-26">
          <mxGeometry x="-0.2281" y="-1" relative="1" as="geometry">
            <mxPoint x="30" y="-2" as="offset" />
          </mxGeometry>
        </mxCell>
        <mxCell id="t5gcVrF-W7fBeW5LNrVJ-32" style="edgeStyle=orthogonalEdgeStyle;rounded=0;orthogonalLoop=1;jettySize=auto;html=1;" edge="1" parent="1" source="t5gcVrF-W7fBeW5LNrVJ-17" target="t5gcVrF-W7fBeW5LNrVJ-9">
          <mxGeometry relative="1" as="geometry">
            <Array as="points">
              <mxPoint x="280" y="460" />
              <mxPoint x="429" y="460" />
            </Array>
          </mxGeometry>
        </mxCell>
        <mxCell id="t5gcVrF-W7fBeW5LNrVJ-33" value="&lt;font color=&quot;#0000ff&quot; style=&quot;font-size: 15px;&quot;&gt;2 Read&lt;/font&gt;" style="edgeLabel;html=1;align=center;verticalAlign=middle;resizable=0;points=[];" vertex="1" connectable="0" parent="t5gcVrF-W7fBeW5LNrVJ-32">
          <mxGeometry x="0.4475" y="1" relative="1" as="geometry">
            <mxPoint x="-32" as="offset" />
          </mxGeometry>
        </mxCell>
      </root>
    </mxGraphModel>
  </diagram>
</mxfile>
